Coordinates
version=1
nRows=29
nColumns=24
inDegrees=yes

Units are S.I. units (second, meters, Newtons, ...)
Angles are in degrees.

endheader
time	pelvis_tilt	pelvis_list	pelvis_rotation	pelvis_tx	pelvis_ty	pelvis_tz	hip_flexion_r	hip_adduction_r	hip_rotation_r	knee_angle_r	ankle_angle_r	subtalar_angle_r	mtp_angle_r	hip_flexion_l	hip_adduction_l	hip_rotation_l	knee_angle_l	ankle_angle_l	subtalar_angle_l	mtp_angle_l	lumbar_extension	lumbar_bending	lumbar_rotation
      0.72900000	     -0.06563107	      3.78443323	     14.41041904	      0.07893271	      0.97854451	      0.27669190	     24.60682529	     -8.36555639	     -7.07450280	      1.91031008	      8.28548029	    -15.72956369	      6.15401860	    -24.69295720	      1.27968150	     12.61463142	     -2.15653608	      9.08085264	     -8.52841743	      9.91725582	     -2.95809933	     -4.67307799	     -4.98074636
      0.73316667	     -0.04739077	      3.71861981	     14.52277813	      0.08523419	      0.97797133	      0.27692119	     24.58828552	     -8.32123720	     -6.98948826	      1.51187747	      8.36092675	    -15.87321489	      6.14908478	    -24.86976509	      1.07929259	     12.61130881	     -2.49014192	      8.89641489	     -8.51285050	      9.92667468	     -2.91575556	     -4.57717428	     -4.99942497
      0.73733333	     -0.01548766	      3.64327196	     14.61068770	      0.09161618	      0.97743110	      0.27719326	     24.55314199	     -8.24735304	     -6.85851409	      1.08298640	      8.39083703	    -16.07951765	      6.14305516	    -25.05531076	      0.87419082	     12.56112967	     -2.83368625	      8.68550004	     -8.46669690	      9.95509644	     -2.85791466	     -4.44615033	     -5.05187546
      0.74150000	      0.00914308	      3.54536255	     14.70135383	      0.09803035	      0.97692113	      0.27750127	     24.53891678	     -8.14523166	     -6.77925180	      0.59948138	      8.34403632	    -16.25700865	      6.14036729	    -25.20721575	      0.64802282	     12.51251926	     -3.21654558	      8.46637713	     -8.44417822	      9.97848552	     -2.82340654	     -4.32561996	     -5.08430863
      0.74566667	      0.04528116	      3.42335779	     14.76298627	      0.10453858	      0.97644375	      0.27786757	     24.47807107	     -7.99085312	     -6.54331392	      0.17174629	      8.12356290	    -16.70450382	      6.14325592	    -25.35014314	      0.40356406	     12.34280068	     -3.63337300	      8.26490180	     -8.23910707	     10.15218007	     -2.76775937	     -4.15182318	     -5.18069391
      0.74983333	      0.07264622	      3.29187157	     14.82638075	      0.11110796	      0.97599628	      0.27821318	     24.47037719	     -7.83076180	     -6.50001228	     -0.37556860	      8.00112338	    -16.85107512	      6.14923055	    -25.48568608	      0.15606602	     12.24471932	     -4.04205219	      7.97752405	     -8.21433945	     10.22571926	     -2.66624501	     -3.96546187	     -5.19678297
      0.75400000	      0.09889169	      3.14193558	     14.87334592	      0.11771561	      0.97557342	      0.27864201	     24.44725142	     -7.63106172	     -6.35190225	     -0.89243392	      7.69196031	    -17.23464470	      6.20200871	    -25.57413759	     -0.10494018	     12.03005547	     -4.53401746	      7.75711919	     -7.99946116	     10.58433071	     -2.58638098	     -3.78058856	     -5.22435195
      0.75816667	      0.11818377	      2.95826493	     14.90828266	      0.12439997	      0.97517046	      0.27908787	     24.44192230	     -7.38925364	     -6.24618545	     -1.43359244	      7.34194518	    -17.56671439	      6.41000470	    -25.63364362	     -0.39252075	     11.76617884	     -5.05351705	      7.51024947	     -7.75030088	     11.64753995	     -2.47707379	     -3.55286316	     -5.20236153
      0.76233333	      0.15167624	      2.78984517	     14.92434282	      0.13111833	      0.97482736	      0.27952951	     24.46359238	     -7.15838245	     -6.26763454	     -2.07865066	      7.09659875	    -17.58529061	      6.42668490	    -25.74263545	     -0.65326212	     11.64314374	     -5.50918898	      7.08839908	     -7.82720204	     11.72724753	     -2.36758486	     -3.33596252	     -5.23410691
      0.76650000	      0.16346475	      2.59134301	     14.94465423	      0.13788850	      0.97449668	      0.28000749	     24.50174430	     -6.89545561	     -6.28978636	     -2.71030249	      6.72288263	    -17.71538439	      7.88581046	    -25.76329379	     -0.94428466	     11.36627639	     -6.06689324	      6.67739496	     -7.68894822	     17.35976354	     -2.24264522	     -3.10436669	     -5.23874919
      0.77066667	      0.19540675	      2.37582249	     14.92641779	      0.14471497	      0.97421890	      0.28052301	     24.52877667	     -6.59308074	     -6.27584585	     -3.35524869	      6.33066910	    -17.81235535	      7.88494689	    -25.82824072	     -1.23298270	     11.17437985	     -6.58825596	      6.23888796	     -7.73583059	     17.37612326	     -2.11433003	     -2.83117277	     -5.25199623
      0.77483333	      0.20578662	      2.13708898	     14.90416189	      0.15158500	      0.97395071	      0.28108231	     24.57665283	     -6.26341492	     -6.23916850	     -3.99250828	      5.87102966	    -17.98024759	      7.89985792	    -25.82906711	     -1.53881110	     10.91432116	     -7.17949493	      5.80509559	     -7.65169994	     17.44309494	     -1.97026170	     -2.55407778	     -5.23385157
      0.77900000	      0.22285699	      1.89783808	     14.86803929	      0.15846392	      0.97372752	      0.28167410	     24.62544668	     -5.92318545	     -6.19726980	     -4.64684529	      5.38114134	    -18.20911512	      7.95595645	    -25.78352077	     -1.84176316	     10.52926205	     -7.87601725	      5.42506625	     -7.39436210	     17.63442324	     -1.79948544	     -2.26616004	     -5.18083235
      0.78316667	      0.25201756	      1.64769463	     14.80760010	      0.16538078	      0.97356394	      0.28227763	     24.68605807	     -5.56593687	     -6.20690044	     -5.35028349	      4.93806843	    -18.20433320	      7.98835650	    -25.77555757	     -2.14146143	     10.24156245	     -8.51309244	      4.88629063	     -7.36163120	     17.74134690	     -1.66935610	     -1.97039727	     -5.18284258
      0.78733333	      0.25154485	      1.38523843	     14.74550971	      0.17230478	      0.97338873	      0.28291362	     24.78262636	     -5.19894266	     -6.19131832	     -6.06320774	      4.48366785	    -18.32337257	      8.09178069	    -25.64867454	     -2.45068103	      9.77318262	     -9.32111118	      4.46679604	     -7.03235410	     18.06835289	     -1.46483099	     -1.65977739	     -5.10409926
      0.79150000	      0.28020835	      1.12028696	     14.64950364	      0.17923114	      0.97327792	      0.28360122	     24.87305791	     -4.81159801	     -6.17925191	     -6.82031388	      4.02319162	    -18.34031203	      8.31438691	    -25.54814547	     -2.75861677	      9.26979708	    -10.13141410	      3.99955529	     -6.68035223	     18.78173659	     -1.32053674	     -1.34699240	     -5.05471704
      0.79566667	      0.32883159	      0.85536569	     14.54919854	      0.18618115	      0.97326875	      0.28426117	     24.93504010	     -4.42135854	     -6.17606373	     -7.57681161	      3.64382693	    -18.27764646	      8.35076593	    -25.49997371	     -3.05182315	      8.96711969	    -10.87263108	      3.31282457	     -6.75622517	     18.90499702	     -1.19853937	     -1.01676853	     -5.07072716
      0.79983333	      0.31446746	      0.57843940	     14.45223277	      0.19310024	      0.97318532	      0.28496886	     25.08358948	     -4.03407310	     -6.16793799	     -8.37557278	      3.31003683	    -18.25141611	      8.48755890	    -25.26178037	     -3.36116619	      8.40647186	    -11.85241020	      2.82418981	     -6.35818063	     19.38730473	     -0.98387866	     -0.69971783	     -4.96443683
      0.80400000	      0.38237983	      0.29681110	     14.33858923	      0.20002357	      0.97326576	      0.28569052	     25.13502180	     -3.61518402	     -6.15663541	     -9.14955542	      2.88015551	    -18.29230406	     10.37461388	    -25.13786689	     -3.68898780	      7.90507610	    -12.74818692	      2.11772908	     -6.20345225	     26.66892023	     -0.88293532	     -0.35196914	     -4.98456927
      0.80816667	      0.43003259	      0.03546552	     14.18147626	      0.20693324	      0.97334716	      0.28645745	     25.23640343	     -3.20842639	     -6.09739809	     -9.99698511	      2.64725544	    -18.15779743	     10.36997886	    -24.99532819	     -3.96082709	      7.46424180	    -13.66361938	      1.39372542	     -6.15221571	     26.68613953	     -0.77106592	     -0.02753621	     -4.96563423
      0.81233333	      0.43736232	     -0.22569637	     14.05637104	      0.21376460	      0.97340025	      0.28721800	     25.38166023	     -2.82611351	     -6.07840784	    -10.85997165	      2.47102334	    -18.01650234	     10.36458717	    -24.68899353	     -4.25699027	      6.86006736	    -14.80634543	      0.83695431	     -5.72901070	     26.77444189	     -0.60087027	      0.27226161	     -4.87627412
      0.81650000	      0.48460418	     -0.48941445	     13.91488317	      0.22058772	      0.97355338	      0.28800923	     25.47244747	     -2.41941016	     -6.02099731	    -11.70017414	      2.28927072	    -17.92016103	     10.35924654	    -24.43142749	     -4.55836108	      6.30475071	    -15.92240212	      0.17414870	     -5.43155439	     26.89510948	     -0.49441434	      0.59238904	     -4.85309010
      0.82066667	      0.53010488	     -0.74520284	     13.77213878	      0.22736995	      0.97373822	      0.28880768	     25.56292782	     -2.02039578	     -5.95679733	    -12.54757979	      2.15040175	    -17.82445372	     10.35192894	    -24.13860811	     -4.85579588	      5.74673090	    -17.09427532	     -0.50345234	     -5.13299653	     27.04791319	     -0.38449152	      0.90307061	     -4.83230226
      0.82483333	      0.58171591	     -0.99442745	     13.63049764	      0.23410564	      0.97397330	      0.28962692	     25.63064688	     -1.62145190	     -5.87060237	    -13.36898740	      2.05110791	    -17.72921576	     10.34196199	    -23.81925384	     -5.15450692	      5.19455622	    -18.31664146	     -1.21434377	     -4.85936226	     27.20809046	     -0.29254721	      1.20142891	     -4.82569374
      0.82900000	      0.63387049	     -1.23684030	     13.49219140	      0.24079055	      0.97424858	      0.29045133	     25.68268771	     -1.22604521	     -5.77010843	    -14.16780732	      1.98570019	    -17.64039375	     10.32874447	    -23.46577850	     -5.45298416	      4.65359208	    -19.59162180	     -1.94825786	     -4.60742380	     27.36023892	     -0.20676814	      1.49274408	     -4.83497154
      0.83316667	      0.68815698	     -1.47154247	     13.36534794	      0.24740897	      0.97454750	      0.29128303	     25.72965829	     -0.84028553	     -5.68724807	    -14.96977518	      1.94116484	    -17.58667426	     10.30550782	    -23.07498854	     -5.75813121	      4.12258983	    -20.92662488	     -2.65284552	     -4.31765896	     27.54174525	     -0.13990406	      1.78049631	     -4.85320314
      0.83733333	      0.74488603	     -1.69721893	     13.24703651	      0.25396652	      0.97490089	      0.29211816	     25.74014566	     -0.45723082	     -5.57310964	    -15.70801987	      1.92310303	    -17.53417449	     10.27459852	    -22.65147734	     -6.06303143	      3.61555296	    -22.30812433	     -3.39119149	     -4.08801931	     27.71211539	     -0.08067067	      2.04804742	     -4.89216418
      0.84150000	      0.80311123	     -1.90878542	     13.13678528	      0.26046916	      0.97530530	      0.29296246	     25.71618934	     -0.08167594	     -5.43018628	    -16.38627034	      1.93233982	    -17.47908545	     10.24599503	    -22.20217113	     -6.36035952	      3.14671870	    -23.72210706	     -4.16393557	     -3.94275045	     27.82264902	     -0.02594498	      2.28802177	     -4.94291268
      0.84566667	      0.85642266	     -2.11462048	     13.04142987	      0.26689745	      0.97572511	      0.29380042	     25.68621751	      0.28507198	     -5.30406821	    -17.04706234	      1.94566469	    -17.46503685	     10.20876159	    -21.70731362	     -6.66296388	      2.70390445	    -25.19084124	     -4.89554436	     -3.78323539	     27.91387911	      0.02134127	      2.52548755	     -5.01122685
